<svg xmlns="http://www.w3.org/2000/svg" width="349.249" height="271.981" viewBox="0 0 349.249 271.981"><defs><style>.a{opacity:0.85;}.b,.k{fill:#3a86ff;}.b{opacity:0.2;}.c{fill:#ff6584;}.d{fill:none;stroke:#2f2e41;stroke-width:2px;}.e,.l{fill:#fff;}.e{opacity:0.4;}.f{fill:#3f3d56;}.g{opacity:0.1;}.h{fill:#2f2e41;}.i{fill:#7574a3;}.j{fill:#f2f2f2;}.m{fill:#d0cde1;}.n{fill:#ffb9b9;}</style></defs><g class="a" transform="translate(0 0)"><path class="b" d="M427.916,135.316C413.228,77.559,362.476,35.866,302.9,34.194c-31.494-.884-64.635,9.561-88.763,46.112-43.133,65.34,2.651,110.492,34.57,131.947a199.722,199.722,0,0,1,41.282,37.1c21.56,25.585,63.037,57.377,112.434,7.563C438.229,220.816,437.7,173.788,427.916,135.316Z" transform="translate(-153.852 -34.143)"/><path class="c" d="M1022.284,327c0,14.99-12.152,38.914-27.142,38.914S968,341.989,968,327a27.142,27.142,0,1,1,54.284,0Z" transform="translate(-673.035 -212.965)"/><path class="d" d="M1027.532,504.809c-3.411,1.174-4.228,5.826-3.054,9.237s3.658,6.241,4.908,9.625a28.852,28.852,0,0,1,1.223,5.246c.714,4.245,1.43,8.565.88,12.834a36.486,36.486,0,0,1-3.993,11.518,107.751,107.751,0,0,1-12.859,19.847" transform="translate(-704.421 -350.895)"/><path class="c" d="M1048.232,499.089a4.5,4.5,0,0,0-5.232,0v-5.232h5.232Z" transform="translate(-723.509 -343.525)"/><path class="d" d="M1043.04,501.474a5.755,5.755,0,0,0,5.241-.021" transform="translate(-723.536 -348.636)"/><ellipse class="e" cx="5.723" cy="6.867" rx="5.723" ry="6.867" transform="translate(327.666 95.721)"/><path class="c" d="M66,314c0,14.99,12.152,38.914,27.142,38.914S120.284,328.989,120.284,314A27.142,27.142,0,1,0,66,314Z" transform="translate(-66 -204.216)"/><path class="d" d="M137.38,491.809c3.411,1.174,4.227,5.826,3.054,9.237s-3.658,6.241-4.908,9.625a28.842,28.842,0,0,0-1.223,5.246c-.714,4.245-1.43,8.565-.88,12.834a36.488,36.488,0,0,0,3.993,11.518,107.752,107.752,0,0,0,12.859,19.847" transform="translate(-111.243 -342.147)"/><path class="c" d="M141,486.089a4.5,4.5,0,0,1,5.232,0v-5.232H141Z" transform="translate(-116.474 -334.776)"/><path class="d" d="M146.171,488.474a5.755,5.755,0,0,1-5.242-.021" transform="translate(-116.427 -339.888)"/><ellipse class="e" cx="5.723" cy="6.867" rx="5.723" ry="6.867" transform="translate(10.137 91.47)"/><path class="f" d="M423.894,668c0,15.442-72.619,42.839-162.2,42.839S108,655.314,108,639.873s64.116,15.043,153.7,15.043S423.894,652.554,423.894,668Z" transform="translate(-94.265 -438.854)"/><path class="g" d="M423.894,668c0,15.442-72.619,42.839-162.2,42.839S108,655.314,108,639.873s64.116,15.043,153.7,15.043S423.894,652.554,423.894,668Z" transform="translate(-94.265 -438.854)"/><path class="f" d="M423.894,662.693c0,15.442-72.619,27.96-162.2,27.96S108,650.175,108,634.733s64.116,0,153.7,0S423.894,647.251,423.894,662.693Z" transform="translate(-94.265 -433.714)"/><path class="h" d="M477.212,598.688l-3.284,20.972s-16.171,8.591-4.8,8.844,64.936,0,64.936,0,10.36,0-6.064-9.1l-3.285-21.982Z" transform="translate(-334.573 -413.225)"/><path class="g" d="M466.846,628.276a44.726,44.726,0,0,1,7.088-4.692l3.285-20.972,47.5.045,3.285,20.674a43.133,43.133,0,0,1,7.59,4.995c2.109-.481,4.415-2.27-7.59-8.919l-3.284-21.982-47.5,1.263-3.285,20.972S460.346,626.88,466.846,628.276Z" transform="translate(-334.579 -413.225)"/><rect class="h" width="214.013" height="149.076" rx="23.01" transform="translate(59.132 39.293)"/><rect class="f" width="199.611" height="111.681" transform="translate(66.333 47.252)"/><g transform="translate(66.659 47.252)"><rect class="i" width="199.611" height="111.681"/><g transform="translate(10.188 3.108)"><path class="f" d="M948.04,147.063A19.66,19.66,0,1,1,967.7,127.4,19.66,19.66,0,0,1,948.04,147.063Zm0-39.014A19.353,19.353,0,1,0,967.394,127.4,19.353,19.353,0,0,0,948.04,108.049Z" transform="translate(-788.183 -107.742)"/><circle class="j" cx="9.872" cy="9.872" r="9.872" transform="translate(150.05 9.845)"/><rect class="f" width="150.706" height="75.712" transform="translate(9.868 19.74)"/><rect class="g" width="56.515" height="38.753" transform="translate(52.209 41.628)"/><circle class="k" cx="3.981" cy="3.981" r="3.981" transform="translate(169.454 1.86)"/><circle class="k" cx="1.794" cy="1.794" r="1.794" transform="translate(12.559 20.816)"/><circle class="k" cx="1.794" cy="1.794" r="1.794" transform="translate(18.121 20.816)"/><circle class="k" cx="1.794" cy="1.794" r="1.794" transform="translate(23.682 20.816)"/><rect class="k" width="3.588" height="3.588" transform="translate(27.271 47.907)"/><rect class="l" width="3.588" height="3.588" transform="translate(136.532 79.125)"/><rect class="k" width="3.588" height="3.588" transform="matrix(0.777, -0.629, 0.629, 0.777, 124.68, 56.432)"/><path class="f" d="M126.688,336.334H14.017V275.693h.359v60.282H126.688Z" transform="translate(-11.864 -233.347)"/><path class="f" d="M764.352,766.553a2.332,2.332,0,1,1,2.332-2.332A2.332,2.332,0,0,1,764.352,766.553Zm0-4.306a1.974,1.974,0,1,0,1.974,1.974,1.974,1.974,0,0,0-1.974-1.974Z" transform="translate(-647.376 -661.413)"/><path class="f" d="M17.957,358.9a2.332,2.332,0,1,1,2.332-2.332,2.332,2.332,0,0,1-2.332,2.332Zm0-4.306a1.974,1.974,0,1,0,1.974,1.973,1.974,1.974,0,0,0-1.974-1.973Z" transform="translate(-15.625 -316.373)"/><path class="j" d="M221.736,652.535l-1.6,4.485h-3.6v-4.575c.266-5.739,3.486-8.438,3.586-8.52-2.42,2.334-2.151,10.4-2.151,10.4,1.615-7,3.05-7.177,3.05-7.177-.868,1.3-1.317,7.238-1.344,7.607C219.782,653.513,221.736,652.535,221.736,652.535Z" transform="translate(-185.674 -561.569)"/><path class="j" d="M953.037,666.71v3.875h-2.768l-1.358-3.805s1.548.775,1.635,1.764c-.021-.3-.377-5-1.066-6.032,0,0,1.139.142,2.42,5.691,0,0,.212-6.4-1.706-8.251A9.463,9.463,0,0,1,953.037,666.71Z" transform="translate(-805.561 -575.134)"/><path class="m" d="M632.561,537.109H628.2l-.029-.358-.318-3.989h0l-.33-4.147,2.014-8.554,1.711,1.711v8.151s1.006,1.51.8,1.912-.4.4-.2.7.4.5.2.705a.756.756,0,0,0,0,.906c.2.2.6.5.3.8s-.7.1-.3,1.207a3.524,3.524,0,0,0,.276.59A3.9,3.9,0,0,0,632.561,537.109Z" transform="translate(-533.535 -456.729)"/><path class="n" d="M553.862,343.847l-.6,6.038,6.139.906.453-3.472.453-3.472Z" transform="translate(-468.279 -291.033)"/><path class="g" d="M553.862,343.847l-.6,6.038,6.139.906.453-3.472.453-3.472Z" transform="translate(-468.279 -291.033)"/><circle class="n" cx="4.831" cy="4.831" r="4.831" transform="translate(84.123 45.115)"/><path class="m" d="M480.966,515.475c-.017-.035-.035-.072-.054-.112l-.115-.246c-.267-.6-.594-1.444-.406-1.7.3-.4.4-.8.2-1.006s-.8.2-.2-.3.8-.2.6-.8-.6-.3-.2-.6.705-.2.5-.5-.6-.3-.2-.5.705,0,.6-.5-.2-.3,0-.5a9.7,9.7,0,0,0,.479-1.283c.683-2.044,1.835-5.815,1.835-5.964,0-.2-1.61-6.54-1.61-6.54l-.705-.4a11.416,11.416,0,0,0-4.126,6.844c-1.008,4.729-1.711,5.938-1.711,5.938s-1.006.2-.3.9.705.6.1,1.006-1.006-.4-.6.4.9.605.5,1.107-1.106.5-.7.906-.4,1.309.1,1.711.7.5.7,1.207a3.736,3.736,0,0,0,.048.59,3.019,3.019,0,0,0,.074.358c.023.094.046.164.061.209Z" transform="translate(-404.219 -435.095)"/><path class="f" d="M471.446,522.531h.41l.021-.143-.485.031-1.765.112-3.3.209Z" transform="translate(-394.699 -442.151)"/><path class="m" d="M521.479,481.12l-.9-3.12-.025-.679-.479-12.908,5.938-2.112,1.006-.806s.2-2.315.5-2.516c.109-.072.284.012.516.209.407.346.991,1.035,1.7,1.8,1.107,1.207,3.422,1.006,4.126.6a2.376,2.376,0,0,1,.281-.14c.505-.209.725-.061.725-.061.5.4-.7,1.711-.7,1.711s.4.9,3.018,1.811,3.121,5.133,3.121,5.133-3.121,8.452-3.02,9.056a5.716,5.716,0,0,1-.375,1.934v0c-.017.049-.028.078-.028.078l.229,3.911.022.358H521.9a2.068,2.068,0,0,0-.17-.358l-.054-.086C520.775,483.535,521.479,481.12,521.479,481.12Z" transform="translate(-442.589 -405.009)"/><path class="h" d="M561.151,397.21a2.215,2.215,0,0,1-.309-1.563,4.733,4.733,0,0,0,.135-1.408,13.941,13.941,0,0,1,.81-2.045c.405-.733.212-1.042,1.486-1.273s.752-1.891,4.109-.1a.984.984,0,0,0,1.023.386c.695-.135.945.83.945.83s.463-.27.637.116,1.412-.232,1.412,2.373a10.784,10.784,0,0,1-1.409,4.931s.1-4.381-2.193-4.825-4.765-1.736-5.364-.077A12.651,12.651,0,0,1,561.151,397.21Z" transform="translate(-477.061 -346.646)"/><ellipse class="n" cx="0.453" cy="0.604" rx="0.453" ry="0.604" transform="translate(92.527 50.399)"/><path class="l" d="M355.53,360.07v41.623h66.024V360.07ZM421.2,401.335H355.889V360.429H421.2Z" transform="translate(-303.322 -321.313)"/></g></g><circle class="j" cx="1.263" cy="1.263" r="1.263" transform="translate(164.875 42.451)"/><path class="h" d="M460.837,547.2V560.27a7.524,7.524,0,0,1-7.525,7.525H254.349a7.524,7.524,0,0,1-7.525-7.525V547.2Z" transform="translate(-187.692 -379.425)"/><path class="h" d="M399.05,681.324v2.527H263.113V681.83l.187-.506,3.35-9.1H396.271Z" transform="translate(-177.072 -452.401)"/><path class="h" d="M826.241,708.718c-.248,1.059-1.182,2.176-3.295,3.232-7.58,3.79-22.993-1.011-22.993-1.011s-11.876-2.021-11.876-7.328a9.462,9.462,0,0,1,1.041-.619c3.187-1.686,13.754-5.846,32.49.176a7.814,7.814,0,0,1,3.561,2.334A3.727,3.727,0,0,1,826.241,708.718Z" transform="translate(-551.949 -482.269)"/><path class="g" d="M828.383,708.718c-9.278,3.555-17.548,3.82-26.035-2.074a18.638,18.638,0,0,0-11.087-3.651c3.187-1.686,13.754-5.847,32.49.176a7.814,7.814,0,0,1,3.561,2.334A3.727,3.727,0,0,1,828.383,708.718Z" transform="translate(-554.092 -482.269)"/><ellipse class="j" cx="3.285" cy="1.011" rx="3.285" ry="1.011" transform="translate(259.374 222.354)"/><circle class="j" cx="4.801" cy="4.801" r="4.801" transform="translate(161.337 173.335)"/><path class="g" d="M399.05,700.044v2.527H263.113V700.55l.187-.506Z" transform="translate(-177.072 -471.121)"/><path class="d" d="M910.536,338.809c-3.411,1.174-4.227,5.826-3.054,9.237s3.658,6.241,4.908,9.625a28.845,28.845,0,0,1,1.223,5.246c.714,4.245,1.43,8.565.88,12.834a36.486,36.486,0,0,1-3.993,11.518,107.752,107.752,0,0,1-12.859,19.847" transform="translate(-625.684 -239.179)"/><path class="k" d="M905.284,161c0,14.99-12.152,38.914-27.142,38.914S851,175.989,851,161a27.142,27.142,0,0,1,54.284,0Z" transform="translate(-594.295 -101.249)"/><path class="k" d="M931.232,333.089a4.5,4.5,0,0,0-5.232,0v-5.232h5.232Z" transform="translate(-644.769 -231.809)"/><path class="d" d="M926.042,335.474a5.755,5.755,0,0,0,5.242-.022" transform="translate(-644.798 -236.92)"/><ellipse class="e" cx="5.723" cy="6.867" rx="5.723" ry="6.867" transform="translate(289.406 41.437)"/></g></svg>