<svg xmlns="http://www.w3.org/2000/svg" width="391.301" height="250" viewBox="0 0 391.301 250"><defs><style>.a{fill:#e6e6e6;}.b{fill:#fff;}.c{fill:#3a86ff;}.d{fill:#3f3d56;}.e{fill:#fbbebe;}.f{fill:#2f2e41;}</style></defs><rect class="a" width="185.075" height="242.36" transform="translate(42.824)"/><rect class="b" width="163.042" height="44.065" transform="translate(53.84 12.559)"/><rect class="b" width="101.351" height="158.636" transform="translate(115.091 71.606)"/><rect class="a" width="41.167" height="3.094" transform="translate(123.092 29.024)"/><rect class="a" width="51.809" height="3.094" transform="translate(117.584 37.064)"/><rect class="a" width="41.167" height="3.094" transform="translate(143.363 108.214)"/><rect class="c" width="63.571" height="3.094" transform="translate(143.363 117.297)"/><rect class="a" width="51.809" height="3.094" transform="translate(144.023 125.948)"/><rect class="a" width="30.245" height="3.094" transform="translate(143.363 135.44)"/><rect class="c" width="45.648" height="3.094" transform="translate(143.363 144.712)"/><rect class="a" width="5.041" height="5.041" transform="translate(124.599 107.24)"/><rect class="c" width="5.041" height="5.041" transform="translate(124.599 116.324)"/><rect class="a" width="5.041" height="5.041" transform="translate(124.599 124.975)"/><rect class="a" width="5.041" height="5.041" transform="translate(124.599 134.467)"/><rect class="c" width="5.041" height="5.041" transform="translate(124.599 143.739)"/><rect class="a" width="41.167" height="3.094" transform="translate(143.363 154.042)"/><rect class="c" width="63.571" height="3.094" transform="translate(143.363 163.125)"/><rect class="a" width="51.809" height="3.094" transform="translate(144.023 171.776)"/><rect class="a" width="30.245" height="3.094" transform="translate(143.363 181.269)"/><rect class="a" width="45.648" height="3.094" transform="translate(143.363 190.54)"/><rect class="a" width="5.041" height="5.041" transform="translate(124.599 153.068)"/><rect class="c" width="5.041" height="5.041" transform="translate(124.599 162.152)"/><rect class="a" width="5.041" height="5.041" transform="translate(124.599 170.803)"/><rect class="a" width="5.041" height="5.041" transform="translate(124.599 180.295)"/><rect class="a" width="5.041" height="5.041" transform="translate(124.599 189.567)"/><path class="c" d="M322.436,215.1a13.1,13.1,0,1,0,13.1,13.1A13.1,13.1,0,0,0,322.436,215.1Zm0,3.93a3.93,3.93,0,1,1-3.93,3.93A3.93,3.93,0,0,1,322.436,219.032Zm0,18.92a9.543,9.543,0,0,1-7.86-4.195c.063-2.62,5.24-4.062,7.86-4.062s7.8,1.442,7.86,4.062a9.559,9.559,0,0,1-7.86,4.195Z" transform="translate(-241.768 -193.611)"/><rect class="d" width="391.301" height="0.987" transform="translate(0 241.832)"/><path class="e" d="M861.389,335.176s4.473,9.442,7.455,10.437L860.4,358.534l-6.958-8.448s.5-5.964-.994-8.448S861.389,335.176,861.389,335.176Z" transform="translate(-545.471 -260.774)"/><circle class="e" cx="9.442" cy="9.442" r="9.442" transform="translate(299.518 63.966)"/><path class="e" d="M671.817,314.326l2.485,6.957,2.982-3.479-2.5-7.925Z" transform="translate(-375.778 -173.33)"/><path class="f" d="M841.184,477.145s-2.982,12.424-1.491,18.388,5.964,46.715,5.964,46.715l2.982,32.3,11.927.994-1.491-37.77,1.491-32.8,8.448,31.806v38.764l14.412.5-1.491-50.194s.994-38.764-5.467-43.733-7.455-5.964-7.455-5.964Z" transform="translate(-538.187 -339.628)"/><path class="f" d="M861.319,698.327l-.994,3.479-1.491,4.473s-4.473,8.945,2.982,7.455,6.46-4.97,6.46-4.97,2.485-1.491,1.988-1.988-.5-7.951-.5-7.951Z" transform="translate(-548.383 -463.901)"/><path class="f" d="M920.136,698.327l.994,3.479,1.491,4.473s4.473,8.945-2.982,7.455-6.461-4.97-6.461-4.97-2.485-1.491-1.988-1.988.5-7.951.5-7.951Z" transform="translate(-578.376 -463.901)"/><path class="a" d="M853.01,363.294l6.078-8.945,11.316,5.964L871.895,412s-6.46-3.976-16.4.994-16.4,1.491-16.4,1.491l5.964-22.364L842.574,362.3l3.554-3.226Z" transform="translate(-538.086 -271.498)"/><path class="f" d="M835.405,362.92l-2.064,1.682s-12.921,6.461-13.418,10.933l8.945,24.351s2.485,5.467.5,7.455-3.976,6.957-3.479,9.442S822.9,429.7,826.88,429.7s13.418-23.854,12.921-33.3S838.961,362.233,835.405,362.92Z" transform="translate(-527.362 -276.285)"/><path class="f" d="M821.67,384.8l-3.063.328s-2.9,2.157-2.9,7.127-.5,19.879-.5,19.879-.994,7.454,1.988,12.921a58.193,58.193,0,0,1,3.479,6.958l4.97-5.964V413.623l1.988-7.951Z" transform="translate(-524.637 -288.53)"/><path class="f" d="M880.881,349.709l4.858,2.045s16.9,4.473,19.382,11.927l-6.958,17.394s4.97,31.806,3.479,31.806h-1.491s3.976,2.982,1.491,3.976-8.449,8.945-9.939,5.467-10.436-44.727-9.442-53.673S880,350.646,880.881,349.709Z" transform="translate(-561.373 -268.903)"/><path class="f" d="M844.781,302.8V301.8H842.3s-3.976-2.485-7.455.5-4.97,4.473-4.97,4.473l-1.491,1.988,1.491.5-1.491,1.491h1.491l-.994,1.491,2.786,3.727s-.3-3.727,2.681-3.727,6.461-3.976,6.461-3.976l7.455,5.467s-.5-2.968,1.242-2.975C849.5,310.754,850.247,303.293,844.781,302.8Z" transform="translate(-532.093 -241.563)"/><path class="e" d="M932.33,486.3l-.994,10.436s0,15.406-5.467,13.915-.994-14.412-.994-14.412l.755-9.346Z" transform="translate(-585.103 -345.305)"/><path class="f" d="M917.907,375.272s6.461-2.485,8.448,4.97,4.473,22.364,4.473,22.364a22.364,22.364,0,0,1,0,16.4l-1.491,7.455-8.448-.994-1.988-16.9-1.988-21.37Z" transform="translate(-581.613 -282.979)"/></svg>