<svg xmlns="http://www.w3.org/2000/svg" xmlns:xlink="http://www.w3.org/1999/xlink" width="321.368" height="250" viewBox="0 0 321.368 250"><defs><style>.a{fill:#f5f5f5;}.b{fill:url(#a);}.c,.m{fill:#fff;}.d{fill:#ff5252;}.e{fill:#ff0;}.f{fill:#69f0ae;}.g,.n{fill:#3a86ff;}.h{fill:url(#b);}.i{fill:url(#c);}.j{fill:url(#d);}.k{fill:url(#e);}.l{fill:url(#f);}.m{stroke:#fff;stroke-miterlimit:10;}.n{opacity:0.1;}.o{fill:#e0e0e0;}.p{fill:#bdbdbd;}.q{fill:url(#g);}.r{fill:url(#h);}.s{fill:url(#i);}.t{fill:url(#j);}.u{fill:#2196f3;}.v{fill:url(#k);}.w{fill:url(#l);}.x{fill:url(#m);}.y{fill:url(#n);}.z{fill:url(#o);}.aa{fill:url(#p);}.ab{fill:url(#q);}.ac{fill:url(#r);}.ad{fill:#64ffda;}</style><linearGradient id="a" x1="-0.409" y1="0.678" x2="-0.409" y2="-0.322" gradientUnits="objectBoundingBox"><stop offset="0" stop-color="gray" stop-opacity="0.251"/><stop offset="0.54" stop-color="gray" stop-opacity="0.122"/><stop offset="1" stop-color="gray" stop-opacity="0.102"/></linearGradient><linearGradient id="b" x1="-6.068" y1="-0.993" x2="-6.068" y2="-1.96" gradientUnits="objectBoundingBox"><stop offset="0" stop-opacity="0.122"/><stop offset="0.55" stop-opacity="0.09"/><stop offset="1" stop-opacity="0.02"/></linearGradient><linearGradient id="c" x1="-109.239" y1="-8.25" x2="-109.239" y2="-9.25" xlink:href="#b"/><linearGradient id="d" x1="-16.486" y1="-4.127" x2="-16.486" y2="-5.127" xlink:href="#b"/><linearGradient id="e" x1="-17.75" y1="-4.759" x2="-17.75" y2="-5.716" xlink:href="#b"/><linearGradient id="f" x1="-14.648" y1="-3.726" x2="-14.648" y2="-4.581" xlink:href="#b"/><linearGradient id="g" x1="-21.53" y1="-4.822" x2="-20.53" y2="-4.822" gradientUnits="objectBoundingBox"><stop offset="0" stop-opacity="0.09"/><stop offset="0.55" stop-opacity="0.071"/><stop offset="1" stop-opacity="0.02"/></linearGradient><linearGradient id="h" x1="-21.343" y1="-3.326" x2="-20.343" y2="-3.326" xlink:href="#g"/><linearGradient id="i" x1="-21.15" y1="-1.784" x2="-20.15" y2="-1.784" xlink:href="#g"/><linearGradient id="j" x1="-22.873" y1="-4.629" x2="-21.873" y2="-4.629" xlink:href="#g"/><linearGradient id="k" x1="-22.686" y1="-3.133" x2="-21.686" y2="-3.133" xlink:href="#g"/><linearGradient id="l" x1="-22.493" y1="-1.591" x2="-21.493" y2="-1.591" xlink:href="#g"/><linearGradient id="m" x1="0.5" y1="1" x2="0.5" y2="0" xlink:href="#a"/><linearGradient id="n" x1="0.5" y1="1" x2="0.5" y2="0" xlink:href="#b"/><linearGradient id="o" x1="0.502" y1="1" x2="0.502" y2="0" xlink:href="#b"/><linearGradient id="p" x1="0.5" y1="1" x2="0.5" y2="0" xlink:href="#b"/><linearGradient id="q" x1="0.5" y1="1" x2="0.5" y2="0" xlink:href="#b"/><linearGradient id="r" x1="0.5" y1="1.001" x2="0.5" y2="0" xlink:href="#b"/></defs><g transform="translate(-0.008 0.001)"><rect class="a" width="278.546" height="137.467" transform="translate(1.92 73.94) rotate(-15.27)"/><rect class="b" width="282.057" height="140.832" transform="translate(0.008 74.284) rotate(-15.27)"/><rect class="c" width="278.546" height="123.505" transform="translate(5.572 87.322) rotate(-15.27)"/><circle class="d" cx="3.491" cy="3.491" r="3.491" transform="translate(5.08 75.86) rotate(-15.154)"/><circle class="e" cx="3.511" cy="3.511" r="3.511" transform="translate(15.926 73.404) rotate(-15.27)"/><circle class="f" cx="3.511" cy="3.511" r="3.511" transform="translate(26.089 70.629) rotate(-15.27)"/><rect class="g" width="73.342" height="123.669" transform="translate(5.528 87.163) rotate(-15.27)"/><path class="h" d="M283.91,384.25c-2.695-9.872-13.306-15.575-23.7-12.746s-16.62,13.15-13.94,23.026a18.617,18.617,0,0,0,17.039,13.427l-1.256-4.607a6.464,6.464,0,0,1,4.734-7.793h0a6.444,6.444,0,0,1,8.012,4.315l1.256,4.607A18.646,18.646,0,0,0,283.91,384.25Z" transform="translate(-214.001 -274.627)"/><rect class="i" width="2.345" height="7.859" rx="1.173" transform="translate(50.886 118.462) rotate(-15.27)"/><ellipse class="j" cx="7.498" cy="7.123" rx="7.498" ry="7.123" transform="translate(41.32 107.401) rotate(-15.27)"/><path class="k" d="M295.039,438.386h0a6.49,6.49,0,0,0-4.734,7.793l1.256,4.607a20.549,20.549,0,0,0,12.746-3.478L303.05,442.7A6.45,6.45,0,0,0,295.039,438.386Z" transform="translate(-242.263 -317.46)"/><path class="l" d="M273.764,392.269a6.621,6.621,0,0,1-1.715-3.245,4.7,4.7,0,0,1,.747-3.572,7.325,7.325,0,0,1,3.518-2.312c1.333-.492,2.768-.8,4.057-1.424a8.991,8.991,0,0,0,4.552-5.065,10.884,10.884,0,0,1,.794,3.033,3.846,3.846,0,0,1-.965,2.95c.965-.783,1.158.364,1.092,1.125.728.477,2.065.219,2.352,1.009a5.025,5.025,0,0,1,.364,2.462c-.127.834.586,2.054-.248,2.342" transform="translate(-230.73 -278.36)"/><path class="g" d="M282.539,377.421A18.532,18.532,0,1,0,263.2,400.782l-1.256-4.607a6.293,6.293,0,0,1,4.4-7.706h0a6.293,6.293,0,0,1,7.706,4.4l1.256,4.607A18.536,18.536,0,0,0,282.539,377.421Z" transform="translate(-214.305 -270.173)"/><rect class="m" width="2.229" height="7.859" rx="1.114" transform="translate(50.21 115.819) rotate(-15.27)"/><circle class="m" cx="7.123" cy="7.123" r="7.123" transform="translate(40.95 104.675) rotate(-15.27)"/><path class="m" d="M293.577,431.209h0a6.293,6.293,0,0,0-4.4,7.706l1.253,4.607a18.6,18.6,0,0,0,12.1-3.307l-1.256-4.607A6.293,6.293,0,0,0,293.577,431.209Z" transform="translate(-241.537 -312.912)"/><path class="m" d="M272.8,385.059a6.919,6.919,0,0,1-1.675-3.256,4.792,4.792,0,0,1,.666-3.551,6.6,6.6,0,0,1,3.325-2.261,35.247,35.247,0,0,0,3.849-1.369,8.518,8.518,0,0,0,4.275-4.993,11.453,11.453,0,0,1,.8,3.033,3.864,3.864,0,0,1-.885,2.913c.91-.768,1.092.393,1.067,1.136.688.484,1.974.244,2.258,1.034a5.269,5.269,0,0,1,.39,2.458c-.113.83.586,2.054-.208,2.331" transform="translate(-230.134 -273.897)"/><path class="c" d="M305.24,385.259s4.909-.892,3.438,7.156" transform="translate(-251.889 -283.815)"/><rect class="n" width="73.342" height="61.638" transform="translate(21.627 146.863) rotate(-15.27)"/><rect class="c" width="35.892" height="3.511" transform="translate(38.669 155.965) rotate(-15.27)"/><rect class="c" width="44.475" height="3.511" transform="translate(40.826 163.868) rotate(-15.27)"/><rect class="a" width="53.054" height="26.139" transform="translate(90.335 71.865) rotate(-15.27)"/><rect class="o" width="53.054" height="26.139" transform="translate(97.015 96.325) rotate(-15.27)"/><rect class="a" width="53.054" height="26.139" transform="translate(211.897 38.68) rotate(-15.27)"/><rect class="o" width="53.054" height="26.139" transform="translate(218.573 63.14) rotate(-15.27)"/><rect class="a" width="53.054" height="26.139" transform="translate(150.928 55.322) rotate(-15.27)"/><rect class="o" width="53.054" height="26.139" transform="translate(157.605 79.786) rotate(-15.27)"/><rect class="o" width="52.767" height="25.998" transform="translate(104.63 128.874) rotate(-15.154)"/><rect class="p" width="53.054" height="26.139" transform="translate(112.629 153.532) rotate(-15.27)"/><rect class="a" width="53.054" height="26.139" transform="translate(227.511 95.883) rotate(-15.27)"/><rect class="p" width="53.054" height="26.139" transform="translate(234.192 120.346) rotate(-15.27)"/><rect class="a" width="53.054" height="26.139" transform="translate(166.543 112.528) rotate(-15.27)"/><rect class="p" width="53.054" height="26.139" transform="translate(173.223 136.988) rotate(-15.27)"/><ellipse class="q" cx="5.852" cy="5.462" rx="5.852" ry="5.462" transform="translate(97.558 90.92) rotate(-15.27)"/><circle class="g" cx="5.045" cy="5.045" r="5.045" transform="translate(97.139 90.644) rotate(-15.154)"/><ellipse class="r" cx="5.852" cy="5.462" rx="5.852" ry="5.462" transform="translate(157.398 74.583) rotate(-15.27)"/><circle class="g" cx="5.073" cy="5.073" r="5.073" transform="translate(158.15 74.378) rotate(-15.27)"/><ellipse class="s" cx="5.852" cy="5.462" rx="5.852" ry="5.462" transform="translate(219.12 57.731) rotate(-15.27)"/><circle class="g" cx="5.073" cy="5.073" r="5.073" transform="translate(219.872 57.527) rotate(-15.27)"/><ellipse class="t" cx="5.852" cy="5.462" rx="5.852" ry="5.462" transform="translate(113.279 148.5) rotate(-15.27)"/><circle class="u" cx="5.073" cy="5.073" r="5.073" transform="translate(114.031 148.297) rotate(-15.27)"/><ellipse class="v" cx="5.852" cy="5.462" rx="5.852" ry="5.462" transform="translate(173.119 132.163) rotate(-15.27)"/><circle class="u" cx="5.073" cy="5.073" r="5.073" transform="translate(173.868 131.96) rotate(-15.27)"/><ellipse class="w" cx="5.852" cy="5.462" rx="5.852" ry="5.462" transform="translate(234.837 115.312) rotate(-15.27)"/><circle class="u" cx="5.073" cy="5.073" r="5.073" transform="translate(235.589 115.108) rotate(-15.27)"/><rect class="a" width="278.546" height="137.467" transform="translate(41.257 109.338)"/><rect class="x" width="282.057" height="140.832" transform="translate(39.32 109.167)"/><rect class="c" width="278.546" height="123.505" transform="translate(41.257 123.213)"/><circle class="d" cx="3.511" cy="3.511" r="3.511" transform="translate(44.378 112.514)"/><circle class="e" cx="3.511" cy="3.511" r="3.511" transform="translate(54.909 112.514)"/><circle class="f" cx="3.511" cy="3.511" r="3.511" transform="translate(65.445 112.514)"/><rect class="g" width="73.342" height="123.669" transform="translate(41.257 123.049)"/><path class="y" d="M358.212,518.342c0-10.233-8.74-18.532-19.5-18.532s-19.508,8.3-19.508,18.532a18.616,18.616,0,0,0,12.9,17.44v-4.774a6.464,6.464,0,0,1,6.606-6.274h0a6.459,6.459,0,0,1,6.606,6.274v4.774A18.621,18.621,0,0,0,358.212,518.342Z" transform="translate(-260.766 -356.67)"/><rect class="z" width="2.345" height="7.859" rx="1.173" transform="translate(76.766 165.19)"/><ellipse class="aa" cx="7.498" cy="7.123" rx="7.498" ry="7.123" transform="translate(70.455 152)"/><path class="ab" d="M361.236,568.25h0a6.459,6.459,0,0,0-6.606,6.274V579.3a20.549,20.549,0,0,0,13.208,0v-4.774A6.463,6.463,0,0,0,361.236,568.25Z" transform="translate(-283.293 -400.187)"/><path class="ac" d="M350.58,521.424a6.62,6.62,0,0,1-.8-3.583,4.705,4.705,0,0,1,1.661-3.248,7.182,7.182,0,0,1,4.006-1.307,40.032,40.032,0,0,0,4.29-.306,8.991,8.991,0,0,0,5.725-3.689,10.885,10.885,0,0,1-.033,3.135,3.846,3.846,0,0,1-1.708,2.589c1.14-.5,1.016.674.768,1.377.564.648,1.937.754,2.007,1.591a5.026,5.026,0,0,1-.288,2.476c-.346.772.025,2.134-.856,2.185" transform="translate(-280.201 -362.698)"/><path class="g" d="M358.889,510.844a18.532,18.532,0,1,0-24.807,17.44v-4.767a6.293,6.293,0,0,1,6.274-6.274h0a6.293,6.293,0,0,1,6.293,6.274v4.774A18.536,18.536,0,0,0,358.889,510.844Z" transform="translate(-262.433 -351.903)"/><rect class="m" width="2.229" height="7.859" rx="1.114" transform="translate(76.814 162.458)"/><circle class="m" cx="7.123" cy="7.123" r="7.123" transform="translate(70.816 149.268)"/><path class="m" d="M361.774,560.75h0a6.293,6.293,0,0,0-6.274,6.282v4.774a18.6,18.6,0,0,0,12.549,0v-4.774A6.293,6.293,0,0,0,361.774,560.75Z" transform="translate(-283.846 -395.418)"/><path class="m" d="M351.65,513.934a6.919,6.919,0,0,1-.761-3.583,4.792,4.792,0,0,1,1.58-3.248,6.588,6.588,0,0,1,3.8-1.307,36.2,36.2,0,0,0,4.075-.306,8.518,8.518,0,0,0,5.441-3.689,11.453,11.453,0,0,1-.029,3.135,3.864,3.864,0,0,1-1.624,2.589c1.092-.5.965.674.728,1.377.535.648,1.821.754,1.9,1.591a5.269,5.269,0,0,1-.273,2.476c-.328.772.022,2.134-.812,2.185" transform="translate(-280.907 -357.936)"/><path class="c" d="M388.39,517s4.971.433,1.431,7.811" transform="translate(-304.759 -367.6)"/><rect class="n" width="73.342" height="61.638" transform="translate(41.06 184.883)"/><rect class="c" width="35.892" height="3.511" transform="translate(55.106 198.146)"/><rect class="p" width="35.892" height="3.511" transform="translate(142.1 143.919)"/><rect class="o" width="128.348" height="3.511" transform="translate(142.1 164.986)"/><rect class="o" width="128.348" height="3.511" transform="translate(142.1 186.052)"/><rect class="ad" width="35.892" height="3.511" transform="translate(142.1 207.119)"/><rect class="a" width="35.892" height="3.511" transform="translate(188.134 207.119)"/><rect class="ad" width="35.892" height="3.511" transform="translate(234.561 207.119)"/><rect class="c" width="44.475" height="3.511" transform="translate(55.106 206.34)"/></g></svg>