<svg xmlns="http://www.w3.org/2000/svg" xmlns:xlink="http://www.w3.org/1999/xlink" width="353.479" height="250" viewBox="0 0 353.479 250"><defs><style>.a,.c,.d,.i{fill:#3a86ff;}.a,.q{opacity:0.1;}.b{fill:none;stroke:#535461;stroke-miterlimit:10;stroke-width:2px;}.d{opacity:0.25;}.e{fill:#c8cad7;}.f{fill:#474157;}.g{fill:#ededf4;}.h{fill:#fff;}.i{opacity:0.2;}.j{fill:#d4dfec;}.k{fill:url(#a);}.l{fill:#a1616a;}.m{fill:#fa595f;}.n{fill:#605d82;}.o{fill:#5a5773;}.p{fill:#4a4347;}</style><linearGradient id="a" x1="0.5" y1="1" x2="0.5" gradientUnits="objectBoundingBox"><stop offset="0" stop-color="gray" stop-opacity="0.251"/><stop offset="0.54" stop-color="gray" stop-opacity="0.122"/><stop offset="1" stop-color="gray" stop-opacity="0.102"/></linearGradient></defs><path class="a" d="M443.157,112.227A72.375,72.375,0,0,0,429.134,93.34l-194.526-1.62L394.768,72.7a105.54,105.54,0,0,0-32.495-5.449C346.855,56.728,327.038,50.4,305.423,50.4a102.164,102.164,0,0,0-51.949,13.742,104.232,104.232,0,0,0-41.639-8.483c-43.221,0-79.235,25.307-87.315,58.868Z" transform="translate(-96.517 -50.4)"/><path class="a" d="M388.479,279.644a61.625,61.625,0,0,0-6.062-26.564L45.279,283.007a65.594,65.594,0,0,0-7.9,16.864l104.4,13.157L35,322.621c3.213,37.991,41.739,67.993,88.8,67.993,23.689,0,45.214-7.6,61.164-20,16,12.631,37.722,20.392,61.677,20.392,35.526,0,66.191-17.1,80.471-41.829,28.647-7.686,50.9-26.989,58.518-51.132L253.6,280.739H388.479Z" transform="translate(-35 -189.679)"/><path class="b" d="M266.943,440.668s-14.458-20.861-12-40.55a38.457,38.457,0,0,0-4.63-23.88,64.666,64.666,0,0,0-6.8-9.678" transform="translate(-178.285 -267.661)"/><path class="c" d="M225.076,318.724c.938,2.831-1.473,12.744-1.473,12.744s-7.848-6.516-8.787-9.35a5.4,5.4,0,0,1,10.26-3.394Z" transform="translate(-158.378 -232.241)"/><path class="c" d="M268.691,353.2c-.751,2.887-8.161,9.9-8.161,9.9s-3.047-9.735-2.293-12.622a5.4,5.4,0,1,1,10.455,2.725Z" transform="translate(-188.323 -253.829)"/><path class="c" d="M292.653,433.921c-2.108,2.115-12.043,4.423-12.043,4.423s2.287-9.941,4.379-12.053a5.4,5.4,0,1,1,7.651,7.63Z" transform="translate(-203.78 -307.617)"/><path class="c" d="M300.564,505.289c-1.72,2.437-11.124,6.394-11.124,6.394s.572-10.185,2.293-12.622a5.4,5.4,0,1,1,8.831,6.228Z" transform="translate(-209.848 -357.141)"/><path class="c" d="M225.653,390.475c2.684,1.3,12.825.213,12.825.213s-5.43-8.634-8.133-9.938a5.4,5.4,0,0,0-4.692,9.725Z" transform="translate(-164.029 -277.096)"/><path class="c" d="M229.791,470.768c2.953.438,12.306-3.635,12.306-3.635s-7.767-6.616-10.714-7.054a5.4,5.4,0,0,0-1.589,10.689Z" transform="translate(-165.693 -331.885)"/><path class="c" d="M250.294,549.424c2.837.938,12.744-1.5,12.744-1.5s-6.538-7.82-9.384-8.759a5.4,5.4,0,1,0-3.372,10.267Z" transform="translate(-180.383 -386.086)"/><path class="d" d="M225.076,318.724c.938,2.831-1.473,12.744-1.473,12.744s-7.848-6.516-8.787-9.35a5.4,5.4,0,0,1,10.26-3.394Z" transform="translate(-158.378 -232.241)"/><path class="d" d="M268.691,353.2c-.751,2.887-8.161,9.9-8.161,9.9s-3.047-9.735-2.293-12.622a5.4,5.4,0,1,1,10.455,2.725Z" transform="translate(-188.323 -253.829)"/><path class="d" d="M292.653,433.921c-2.108,2.115-12.043,4.423-12.043,4.423s2.287-9.941,4.379-12.053a5.4,5.4,0,1,1,7.651,7.63Z" transform="translate(-203.78 -307.617)"/><path class="d" d="M300.564,505.289c-1.72,2.437-11.124,6.394-11.124,6.394s.572-10.185,2.293-12.622a5.4,5.4,0,1,1,8.831,6.228Z" transform="translate(-209.848 -357.141)"/><path class="d" d="M225.653,390.475c2.684,1.3,12.825.213,12.825.213s-5.43-8.634-8.133-9.938a5.4,5.4,0,0,0-4.692,9.725Z" transform="translate(-164.029 -277.096)"/><path class="d" d="M229.791,470.768c2.953.438,12.306-3.635,12.306-3.635s-7.767-6.616-10.714-7.054a5.4,5.4,0,0,0-1.589,10.689Z" transform="translate(-165.693 -331.885)"/><path class="d" d="M250.294,549.424c2.837.938,12.744-1.5,12.744-1.5s-6.538-7.82-9.384-8.759a5.4,5.4,0,1,0-3.372,10.267Z" transform="translate(-180.383 -386.086)"/><path class="b" d="M205.125,472.794s-21.672-13.213-27.409-32.22a38.476,38.476,0,0,0-13.908-19.954,64.661,64.661,0,0,0-10.138-6.09" transform="translate(-116.549 -300.625)"/><path class="c" d="M121.233,372.477c2.005,2.208,3.816,12.247,3.816,12.247s-9.813-2.778-11.818-4.986a5.4,5.4,0,1,1,8-7.26Z" transform="translate(-87.796 -270.509)"/><path class="c" d="M174.956,386.356c.482,2.947-3.441,12.359-3.441,12.359s-6.738-7.667-7.223-10.614a5.4,5.4,0,0,1,10.664-1.745Z" transform="translate(-123.799 -278.151)"/><path class="c" d="M235.421,447.869c-1.073,2.787-9.219,8.925-9.219,8.925s-1.939-10.01-.87-12.8a5.4,5.4,0,1,1,10.088,3.876Z" transform="translate(-165.573 -318.49)"/><path class="c" d="M268.577,511.235c-.585,2.928-7.579,10.354-7.579,10.354s-3.6-9.544-3.019-12.469a5.4,5.4,0,1,1,10.6,2.115Z" transform="translate(-188.184 -362.639)"/><path class="c" d="M150.418,437.8c2.984.1,11.815-5,11.815-5s-8.462-5.693-11.446-5.8a5.4,5.4,0,0,0-.369,10.8Z" transform="translate(-110.728 -309.188)"/><path class="c" d="M187.159,509.683c2.878-.795,9.779-8.308,9.779-8.308s-9.782-2.912-12.647-2.105a5.4,5.4,0,1,0,2.878,10.414Z" transform="translate(-134.866 -358.76)"/><path class="c" d="M237.789,573.17c2.972-.313,11.042-6.538,11.042-6.538s-9.15-4.511-12.118-4.214a5.4,5.4,0,0,0,1.076,10.751Z" transform="translate(-170.271 -402.243)"/><ellipse class="a" cx="55.993" cy="3.322" rx="55.993" ry="3.322" transform="translate(120.968 226.308)"/><ellipse class="a" cx="14.658" cy="2.668" rx="14.658" ry="2.668" transform="translate(218.972 241.717)"/><path class="e" d="M552.7,687.519v2.005H493.38v-1.633a19.5,19.5,0,0,0,1.342-36.011H552.3a19.51,19.51,0,0,0,.391,35.639Z" transform="translate(-349.993 -463.729)"/><path class="a" d="M555.253,651.89a19.529,19.529,0,0,0-10.78,12.929H508.45a19.529,19.529,0,0,0-10.78-12.929Z" transform="translate(-352.941 -463.736)"/><path class="e" d="M276.21,619.22v11.261c0,6.219,4.551,11.261,10.166,11.261h174.55c5.615,0,10.166-5.043,10.166-11.261V619.22Z" transform="translate(-200.756 -441.286)"/><path class="a" d="M552.7,761.281v2.005H493.38v-1.633a19.457,19.457,0,0,0,4.573-2.434h51.114A19.552,19.552,0,0,0,552.7,761.281Z" transform="translate(-349.993 -537.492)"/><rect class="e" width="98.536" height="5.943" rx="2.972" transform="translate(123.783 222.354)"/><path class="f" d="M471.092,202.386a10.166,10.166,0,0,0-10.166-10.166H286.376a10.166,10.166,0,0,0-10.166,10.166V327.981H471.092Z" transform="translate(-200.756 -147.857)"/><rect class="g" width="184.247" height="117.93" rx="16" transform="translate(80.771 54.06)"/><circle class="h" cx="2.346" cy="2.346" r="2.346" transform="translate(170.549 46.866)"/><circle class="h" cx="5.787" cy="5.787" r="5.787" transform="translate(167.108 183.878)"/><path class="e" d="M477.457,228.225H293.21a5.005,5.005,0,0,1,5.005-5.005H472.452A5,5,0,0,1,477.457,228.225Z" transform="translate(-212.439 -169.16)"/><circle class="g" cx="1.251" cy="1.251" r="1.251" transform="translate(84.525 55.312)"/><circle class="g" cx="1.251" cy="1.251" r="1.251" transform="translate(88.279 55.312)"/><circle class="g" cx="1.251" cy="1.251" r="1.251" transform="translate(92.033 55.312)"/><rect class="c" width="47.235" height="2.815" transform="translate(87.653 63.288)"/><rect class="c" width="47.235" height="2.815" transform="translate(87.653 145.558)"/><rect class="i" width="87.588" height="2.815" transform="translate(87.653 151.814)"/><rect class="i" width="87.588" height="2.815" transform="translate(87.653 155.884)"/><rect class="i" width="87.588" height="2.815" transform="translate(87.653 159.951)"/><rect class="i" width="86.962" height="47.235" transform="translate(87.653 70.796)"/><rect class="i" width="20.333" height="18.769" transform="translate(88.592 122.41)"/><rect class="i" width="20.333" height="18.769" transform="translate(154.282 122.41)"/><rect class="i" width="20.333" height="18.769" transform="translate(120.968 122.41)"/><rect class="i" width="59.85" height="44.053" transform="translate(193.178 84.535)"/><rect class="g" width="47.235" height="2.815" transform="translate(199.484 93.475)"/><rect class="g" width="47.235" height="2.815" transform="translate(199.484 99.315)"/><rect class="g" width="47.235" height="2.815" transform="translate(199.484 105.155)"/><rect class="g" width="47.235" height="2.815" transform="translate(199.484 110.992)"/><rect class="g" width="47.235" height="2.815" transform="translate(199.484 116.832)"/><rect class="c" width="45.255" height="7.924" transform="translate(200.475 133.593)"/><rect class="c" width="30.346" height="5.315" transform="translate(198.057 159.994)"/><ellipse class="a" cx="8.946" cy="0.907" rx="8.946" ry="0.907" transform="translate(71.894 241.639)"/><ellipse class="a" cx="5.362" cy="0.544" rx="5.362" ry="0.544" transform="translate(258.612 229.029)"/><path class="c" d="M287.242,778s-11.668,6.028-5.631,13.138a2.225,2.225,0,0,0,2.208,1.433s-.328-.6.938-1.073a6.125,6.125,0,0,0,1.251-.669,2.969,2.969,0,0,0,1.129-1.508h0s2.387-3.194.538-9.1c0,0,.238-1.67.028-1.939l-1.433,1.911a3.952,3.952,0,0,1,1.633,2.427s-1.527-2.424-1.858-2.149c-.066.056-.7,1.064-.7,1.064s2.54,1.724,2.731,3.96c0,0-1.433-3.128-2.978-3.582l-.873,1.58s2.778,1.689,3.091,4.229c0,0-1.611-3.222-3.256-3.873l-.651,1.667s2.675,1.7,2.922,3.816c0,0-2.237-3.535-3.044-3.441a8.632,8.632,0,0,0-.438,2.049s1.893,1.251,1.927,2.5c0,0-1.745-2.205-2.014-2.058a9.252,9.252,0,0,0,.425,3.369,6.7,6.7,0,0,1-.773-3.369,3.7,3.7,0,0,0-1.12,1.817s-.5-1.22,1.154-2.34a8.54,8.54,0,0,1,.347-1.936,8.061,8.061,0,0,0-2.553,1.949s.278-1.6,2.709-2.4l.626-1.689a11.448,11.448,0,0,0-3.175,1.936s.538-1.589,3.366-2.349l.838-1.564a13.458,13.458,0,0,0-3.209,1.564s.816-1.364,3.469-1.993l.682-.973s-1.564.56-2,.76-.526.1-.526.1A5.656,5.656,0,0,1,285.834,780,14.051,14.051,0,0,0,287.242,778Z" transform="translate(-203.277 -550.397)"/><ellipse class="a" cx="6.857" cy="0.694" rx="6.857" ry="0.694" transform="translate(46.102 228.031)"/><path class="c" d="M199.594,745s-8.94,4.617-4.323,10.06a1.717,1.717,0,0,0,1.692,1.1s-.25-.457.71-.823a4.857,4.857,0,0,0,.963-.513,2.287,2.287,0,0,0,.866-1.157h0s1.827-2.446.41-6.973c0,0,.185-1.282.022-1.489L198.85,746.7a3.037,3.037,0,0,1,1.251,1.858s-1.17-1.855-1.423-1.645c-.05.044-.538.816-.538.816s1.946,1.32,2.093,3.034c0,0-1.1-2.4-2.284-2.743l-.666,1.208s2.124,1.3,2.365,3.241c0,0-1.236-2.468-2.5-2.965l-.5,1.276s2.052,1.3,2.24,2.925c0,0-1.714-2.709-2.334-2.625a6.676,6.676,0,0,0-.335,1.564s1.451.97,1.476,1.921c0,0-1.339-1.689-1.545-1.564a7.094,7.094,0,0,0,.328,2.581,5.159,5.159,0,0,1-.594-2.581,2.853,2.853,0,0,0-.857,1.379s-.385-.938.885-1.792a6.489,6.489,0,0,1,.266-1.483,6.191,6.191,0,0,0-1.955,1.492s.213-1.226,2.074-1.836l.472-1.3a8.773,8.773,0,0,0-2.437,1.486s.413-1.22,2.581-1.8l.644-1.192a10.527,10.527,0,0,0-2.462,1.192,4.168,4.168,0,0,1,2.659-1.527l.522-.748s-1.2.428-1.533.585-.4.075-.4.075a4.341,4.341,0,0,1,2.152-.976A13.115,13.115,0,0,0,199.594,745Z" transform="translate(-144.226 -527.72)"/><path class="c" d="M877.038,755.41s-6.991,3.626-3.381,7.867a1.342,1.342,0,0,0,1.323.857s-.2-.357.557-.644a3.612,3.612,0,0,0,.754-.4,1.79,1.79,0,0,0,.676-.9h0s1.43-1.914.313-5.452a3.531,3.531,0,0,0,.016-1.164l-.848,1.164a2.381,2.381,0,0,1,.979,1.458s-.917-1.455-1.114-1.289c-.041.034-.422.626-.422.626a3.911,3.911,0,0,1,1.636,2.371s-.857-1.877-1.783-2.143l-.5.967a4.113,4.113,0,0,1,1.849,2.534s-.964-1.93-1.952-2.321l-.388,1s1.6,1.017,1.752,2.287c0,0-1.342-2.121-1.824-2.052a5.123,5.123,0,0,0-.263,1.226s1.132.757,1.154,1.5c0,0-1.048-1.32-1.207-1.233a5.532,5.532,0,0,0,.253,2.018,4.066,4.066,0,0,1-.463-2.018,2.227,2.227,0,0,0-.669,1.079s-.313-.732.691-1.4a5.209,5.209,0,0,1,.206-1.161,4.807,4.807,0,0,0-1.527,1.167s.166-.96,1.62-1.436l.369-1.01a7.181,7.181,0,0,0-1.905,1.157s.313-.938,2.021-1.408l.5-.938a8.357,8.357,0,0,0-1.924.938,3.276,3.276,0,0,1,2.08-1.192l.407-.585s-.938.338-1.2.457-.313.059-.313.059a3.384,3.384,0,0,1,1.683-.763A8.425,8.425,0,0,0,877.038,755.41Z" transform="translate(-610.602 -534.874)"/><ellipse class="a" cx="13.06" cy="1.092" rx="13.06" ry="1.092" transform="translate(279.745 247.817)"/><path class="c" d="M961.624,730.887a5.457,5.457,0,0,0-.713,1.345c-.044.116-.084.25-.128.378a1.39,1.39,0,0,0-.25-.088,3.444,3.444,0,0,0-1.114-.094c0-.147.016-.3.022-.46.044-1.648-.15-3.948-1.724-2.972-1.508.938-.432,2.5.541,3.5.084.088.169.169.25.247-.885.626-1.057,2.105-1.2,3.641s-1.451,3.216-2.315,4.17l-.247.266a3.166,3.166,0,0,0-2.5-.648c-.037-.135-.075-.275-.119-.422-.7-2.531-2.152-6.913-4.01-7.874.081-.1.163-.2.247-.313.788-1.032,1.674-2.562.363-2.953s-1.426,1.326-1.355,2.615a2.677,2.677,0,0,0,.038.46,1.924,1.924,0,0,0-1.373.669l-.2-.241c-1.063-1.251-3.015-3.244-3.6-1.739-.551,1.4,1.164,3.222,2.371,4.276l.078.066c-.813,3.288,2.725,5.968,4.63,7.141l.247.15c-2.628,3.1-4.248,8.9-4.248,8.9l7.357,1.314s4.877-4.21,4.254-8.164h.05c4.874-.976,5.984-6.175,5.224-9.262l.084-.034a5.522,5.522,0,0,0,2.259-1.708A1.817,1.817,0,0,0,961.624,730.887Z" transform="translate(-658.362 -516.422)"/><path class="a" d="M961.624,730.887a5.457,5.457,0,0,0-.713,1.345c-.044.116-.084.25-.128.378a1.39,1.39,0,0,0-.25-.088,3.444,3.444,0,0,0-1.114-.094c0-.147.016-.3.022-.46.044-1.648-.15-3.948-1.724-2.972-1.508.938-.432,2.5.541,3.5.084.088.169.169.25.247-.885.626-1.057,2.105-1.2,3.641s-1.451,3.216-2.315,4.17l-.247.266a3.166,3.166,0,0,0-2.5-.648c-.037-.135-.075-.275-.119-.422-.7-2.531-2.152-6.913-4.01-7.874.081-.1.163-.2.247-.313.788-1.032,1.674-2.562.363-2.953s-1.426,1.326-1.355,2.615a2.677,2.677,0,0,0,.038.46,1.924,1.924,0,0,0-1.373.669l-.2-.241c-1.063-1.251-3.015-3.244-3.6-1.739-.551,1.4,1.164,3.222,2.371,4.276l.078.066c-.813,3.288,2.725,5.968,4.63,7.141l.247.15c-2.628,3.1-4.248,8.9-4.248,8.9l7.357,1.314s4.877-4.21,4.254-8.164h.05c4.874-.976,5.984-6.175,5.224-9.262l.084-.034a5.522,5.522,0,0,0,2.259-1.708A1.817,1.817,0,0,0,961.624,730.887Z" transform="translate(-658.362 -516.422)"/><path class="c" d="M947.941,735.767l-.86,2.5s-.479-.338-1.082-.87c-1.2-1.054-2.922-2.875-2.371-4.276.588-1.5,2.54.482,3.6,1.739C947.656,735.379,947.941,735.767,947.941,735.767Z" transform="translate(-659.324 -519.188)"/><path class="c" d="M961.248,731.552a12.656,12.656,0,0,1-.838.988,12.219,12.219,0,0,1-.153-1.326c-.072-1.289.063-3,1.355-2.615S962.042,730.52,961.248,731.552Z" transform="translate(-670.813 -516.412)"/><path class="c" d="M993.5,732.389c-.028.829-.109,1.492-.109,1.492a10.935,10.935,0,0,1-1.073-.96c-.973-1.01-2.049-2.568-.541-3.5C993.348,728.442,993.542,730.741,993.5,732.389Z" transform="translate(-691.968 -516.852)"/><path class="c" d="M1006.326,736.559a5.532,5.532,0,0,1-2.255,1.708,7.017,7.017,0,0,1-.757.275l-1.013-1.423a10.093,10.093,0,0,1,.416-1.383,5.457,5.457,0,0,1,.713-1.345A1.81,1.81,0,0,1,1006.326,736.559Z" transform="translate(-699.716 -519.937)"/><path class="a" d="M952.673,739.92c.425.5.71.888.71.888l-.86,2.5s-.479-.338-1.082-.87a4.945,4.945,0,0,1,.97-2.212Q952.533,740.069,952.673,739.92Z" transform="translate(-664.766 -524.229)"/><path class="a" d="M961.282,737.418a12.683,12.683,0,0,1-.838.988,12.221,12.221,0,0,1-.153-1.326A1.735,1.735,0,0,1,961.282,737.418Z" transform="translate(-670.847 -522.278)"/><path class="c" d="M959.339,748.406l-2.14.938s-.469-.225-1.142-.644c-2.246-1.383-6.769-4.864-3.754-8.968s5.559,3.256,6.569,6.857C959.17,747.668,959.339,748.406,959.339,748.406Z" transform="translate(-664.669 -523.269)"/><path class="a" d="M995.15,739.962a1.752,1.752,0,0,1,1.182-.532c-.028.829-.109,1.492-.109,1.492A10.948,10.948,0,0,1,995.15,739.962Z" transform="translate(-694.803 -523.893)"/><path class="a" d="M1004.111,742.8a7.033,7.033,0,0,1-.757.275l-1.014-1.423a10.1,10.1,0,0,1,.416-1.383A3.755,3.755,0,0,1,1004.111,742.8Z" transform="translate(-699.744 -524.47)"/><path class="c" d="M981.546,752.489c-.119.025-.241.047-.363.063-7.17,1.092-2.365-2.778-2.365-2.778s.313-.3.763-.785a8.425,8.425,0,0,0,2.315-4.17c.225-2.324.485-4.5,3.228-3.866S988.328,751.128,981.546,752.489Z" transform="translate(-682.497 -524.862)"/><rect class="j" width="13.704" height="3.604" transform="translate(285.204 245.486)"/><rect class="j" width="17.905" height="12.575" transform="translate(283.024 233.774)"/><rect class="a" width="13.704" height="3.604" transform="translate(285.204 245.486)"/><rect class="a" width="17.905" height="12.575" transform="translate(283.024 233.774)"/><rect class="j" width="13.704" height="3.604" transform="translate(286.105 245.486)"/><path class="a" d="M969.305,764.32c.313,1.076.466,1.814.466,1.814l-2.14.938s-.469-.225-1.142-.644A5.506,5.506,0,0,1,969.305,764.32Z" transform="translate(-675.108 -540.997)"/><path class="a" d="M981.546,770.39c-.119.025-.241.047-.363.063-7.17,1.092-2.365-2.778-2.365-2.778s.313-.3.763-.785A4.77,4.77,0,0,1,981.546,770.39Z" transform="translate(-682.497 -542.763)"/><path class="c" d="M953.7,776.273s4.017-14.389,9.647-9.951-2.29,11.261-2.29,11.261Z" transform="translate(-666.319 -541.789)"/><circle class="a" cx="0.45" cy="0.45" r="0.45" transform="translate(288.958 218.271)"/><circle class="a" cx="0.45" cy="0.45" r="0.45" transform="translate(288.92 220.374)"/><circle class="a" cx="0.45" cy="0.45" r="0.45" transform="translate(301.983 218.684)"/><circle class="a" cx="0.45" cy="0.45" r="0.45" transform="translate(291.473 229.458)"/><circle class="a" cx="0.45" cy="0.45" r="0.45" transform="translate(301.045 222.175)"/><circle class="a" cx="0.45" cy="0.45" r="0.45" transform="translate(296.39 226.83)"/><circle class="a" cx="0.45" cy="0.45" r="0.45" transform="translate(290.497 219.172)"/><circle class="a" cx="0.45" cy="0.45" r="0.45" transform="translate(300.744 220.036)"/><circle class="a" cx="0.45" cy="0.45" r="0.45" transform="translate(299.205 223.527)"/><circle class="a" cx="0.45" cy="0.45" r="0.45" transform="translate(294.476 229.12)"/><circle class="a" cx="0.45" cy="0.45" r="0.45" transform="translate(293.5 226.905)"/><circle class="a" cx="0.45" cy="0.45" r="0.45" transform="translate(291.172 221.913)"/><rect class="a" width="13.704" height="1.317" transform="translate(286.105 245.486)"/><rect class="j" width="17.905" height="12.575" transform="translate(283.928 233.774)"/><circle class="a" cx="0.45" cy="0.45" r="0.45" transform="translate(295.076 231.147)"/><circle class="a" cx="0.45" cy="0.45" r="0.45" transform="translate(292.374 231.71)"/><path class="k" d="M746.6,484.3a2.212,2.212,0,0,1-.588-1.564c0-.147-.022-.291-.028-.429a1.564,1.564,0,0,0,.435-.394c.741-1.051-1.029-4.864-1.029-4.864a6.033,6.033,0,0,0,0-3.7,8.094,8.094,0,0,0-1-2.046s-2.315-4.755-1.971-5.318-.573-5.005-1.251-5.9a13.028,13.028,0,0,0-.913-1.107,6.44,6.44,0,0,0-.857-3.441,28.954,28.954,0,0,1-2.055-5.693,34.836,34.836,0,0,0-2.055-5.318,5.943,5.943,0,0,0-1.251-1.286c.134-.626.444-1.455-.444-6.359-.363-2.015.2-3.216.669-5.208s.366-4.3-1.064-5.8-3.647-1.786-5.421-2.815c-1.564-.9-2.956-2.434-4.783-2.406a4.945,4.945,0,0,0-2.574.735c-2.136.87-4.539.607-6.71,1.326-1.952.648-4.433,2.775-3.841,5.03a2.472,2.472,0,0,0,.719,1.339,1.618,1.618,0,0,0,1.517.272.2.2,0,0,1-.022.109,5.774,5.774,0,0,0-.075.938,6.18,6.18,0,0,0,6.234,6.081c.019.072.034.147.053.222.047.2.091.4.135.607-.163.216-.332.432-.491.648a6.282,6.282,0,0,0-.938,1.667c-1.808.369-4.839.967-5.318,1.749-.626,1.051-3.2,6.256-2.912,8.624.016.131.028.313.041.5A29.96,29.96,0,0,0,707,454.2c-.228.885-.741,4.2-1.714,4.974s-2.969,3.263-2.684,3.754-2.684,1.1-2.684,1.1-2,.773-1.877,1.383c.034.185-.106.36-.313.529-2.271-.748-5.164-1.251-7.407-.113-3.128,1.586,2.359,2.678,5.631,3.156.538.081,1.013.144,1.383.188.025.106.128.2.391.291.206.072.513.185.87.313l.131-.407c1.085.385,4.048,1.583,4.048,1.583s2.571.419,3.313-1.073a13.53,13.53,0,0,1,2.1-2.5l-.1.335-2.165,7.142s-3.425,5.318-3.253,6.466-1.085,4.092-1.37,4.379-3.128,8.677-4.626,9.231-3.485,2.487-2.815,3.1,3.441,2.6,4.692,1.933,3.441.554,3.441.554a8.31,8.31,0,0,1,4.348.544c.022.216.047.451.072.7a27.26,27.26,0,0,0,.888,5.224c.573,1.217,1.086,3.372.626,4.2s.4,16.638,1.251,19.347c.669,2.121,1.586,5.534,1.43,7.761-.094,1.355-.15,2.709-.16,4.067v.225c0,.075-.053.119-.078.181v.122a11.237,11.237,0,0,0-.5,1.442s-1.473,3.7-.976,4.67a.867.867,0,0,0,.235.272,6.79,6.79,0,0,0,3.128.716l-.028.938h.841s.022-.938.078-2.108a5.753,5.753,0,0,0,.363-2.058,8.417,8.417,0,0,1,.751-3.557s.019-.1.038-.253h0a6.286,6.286,0,0,0,.053-.973,3.44,3.44,0,0,0-.313-1.655,3.729,3.729,0,0,1,.063-1.01c.228-.829-.344-6.632-.344-6.632l.97-10.67s.573-8.236.344-10.392a6.852,6.852,0,0,1,.041-1.733,55.952,55.952,0,0,0,.626-7.076v-.663c2.077.713,5.6.128,5.6.128s.82-.019,1.908,0c.028.225.059.447.091.663a12.39,12.39,0,0,0,.566,2.631c.569,1.217,1.085,3.372.626,4.2s.4,16.638,1.251,19.347c.673,2.121,1.589,5.531,1.433,7.761-.094,1.351-.15,2.706-.16,4.067v.25c-.028.059-.056.119-.081.182s0,.084,0,.122a11.41,11.41,0,0,0-.472,1.448s-1.476,3.707-.976,4.674a.822.822,0,0,0,.235.269,6.75,6.75,0,0,0,3.128.716l-.028.938h.841s.022-.938.078-2.108a5.757,5.757,0,0,0,.363-2.058,8.447,8.447,0,0,1,.738-3.557,6.488,6.488,0,0,0,.091-1.22,3.422,3.422,0,0,0-.328-1.664,3.845,3.845,0,0,1,.063-1.007c.228-.829-.341-6.635-.341-6.635l.97-10.667s.572-8.236.341-10.392a6.988,6.988,0,0,1,.044-1.733,55.777,55.777,0,0,0,.626-6.722V501.1c.206-.253.626-.454,1.783-.842,2-.663,6-3.982,7.6-4.2s3.025-1.273,2.568-2.1-2.969-1.383-2.74-2.653-1.542-2.046-2.34-4.145-4.286-3.754-4.342-5.318-3.291-6.344-3.291-6.344-3.25-5.405-3.97-8.709a1.163,1.163,0,0,0-.041-.213h.041a6.022,6.022,0,0,1-.119-.751,1.163,1.163,0,0,1,.028-.213h-.044v-.141a.516.516,0,0,1,.069-.044l.188-.109-.063.025a6.189,6.189,0,0,0,1.035-.845,4.6,4.6,0,0,0,1.192-1.664,8.446,8.446,0,0,0,.466-2.19l.407-.626c.394,1.649.97,4.013,1.151,4.542a46.084,46.084,0,0,1,2.058,6.869,23.332,23.332,0,0,0,2.5,6.469s2.912,3.813,5.14,3.979.973.773,1.314.885l.1.022.034.447.1,1.3s2.283,9.287,4.855,7.961S747.453,484.907,746.6,484.3Z" transform="translate(-484.69 -304.83)"/><path class="l" d="M862.389,624.9c-2.471,1.32-4.667-7.9-4.667-7.9l-.094-1.292-.178-2.443,3.019.385a9.224,9.224,0,0,0,0,1.586,2.234,2.234,0,0,0,.566,1.542C861.839,617.38,864.857,623.58,862.389,624.9Z" transform="translate(-600.177 -437.19)"/><path class="l" d="M754.21,822.249l.21-.16A1.12,1.12,0,0,1,754.21,822.249Z" transform="translate(-529.232 -580.695)"/><path class="l" d="M753.959,660.64v7.116a57.566,57.566,0,0,1-.626,7.029,7.018,7.018,0,0,0-.041,1.717c.219,2.143-.313,10.323-.313,10.323l-.938,10.595s.547,5.762.313,6.569a3.99,3.99,0,0,0-.059,1c.031.938.194,2.143.247,2.5v.109l-.034.025-4.589,3.5c.732-.666.92-2.218.917-3.657v-.469q0-2.018.156-4.035c.15-2.212-.732-5.6-1.376-7.708-.823-2.687-1.649-18.387-1.208-19.21s-.056-2.966-.6-4.173a28.768,28.768,0,0,1-.823-5.183c-.119-1.139-.191-2-.191-2Z" transform="translate(-522.759 -469.749)"/><path class="l" d="M805.26,817.729l.225-.169A1.321,1.321,0,0,1,805.26,817.729Z" transform="translate(-564.313 -577.582)"/><path class="l" d="M804.988,656.14v7.467a57.559,57.559,0,0,1-.6,6.679,7.025,7.025,0,0,0-.041,1.717c.219,2.143-.313,10.323-.313,10.323l-.938,10.595a55.2,55.2,0,0,1,.332,6.569,3.831,3.831,0,0,0-.059,1c.031.938.2,2.162.247,2.5a.272.272,0,0,0,.016.1l-.034.025h0l-4.6,3.5c.71-.682.895-2.215.891-3.635v-.472c0-1.345.063-2.69.153-4.035.147-2.212-.732-5.6-1.376-7.7-.826-2.687-1.649-18.387-1.208-19.21s-.056-2.966-.6-4.173a12.537,12.537,0,0,1-.547-2.612c-.291-2.09-.5-4.576-.5-4.576Z" transform="translate(-557.819 -466.657)"/><path class="a" d="M785.113,454.487l-.047.072a6.025,6.025,0,0,1-4.176,2.5,5.182,5.182,0,0,1-.735.05c-.019-.075-.034-.15-.053-.222-.36-1.564-.741-2.815-.741-2.815s.41-.591,1.007-1.345c1.623-2.052,4.614-5.3,4.379-.96a7.433,7.433,0,0,0,.313,2.6A.353.353,0,0,1,785.113,454.487Z" transform="translate(-546.515 -324.741)"/><path class="l" d="M774.654,440.238a6.034,6.034,0,0,1-5.3,5.99,5.837,5.837,0,0,1-.745.047h-.044a6.037,6.037,0,1,1,6.084-6.037Z" transform="translate(-534.984 -314.143)"/><path class="l" d="M792.014,468.422l-5.856,5.005s-6.385-9.109-5.631-10.977a6.28,6.28,0,0,0,.059-2.781c-.084-.626-.206-1.317-.344-1.968-.041-.2-.084-.4-.128-.6-.019-.075-.035-.15-.053-.222-.36-1.564-.741-2.815-.741-2.815s.41-.591,1.007-1.345c1.623-2.052,4.614-5.3,4.379-.96a7.436,7.436,0,0,0,.313,2.6.422.422,0,0,0,.047.147,13.461,13.461,0,0,0,4.417,5.868,17.461,17.461,0,0,0,2.018,1.433Z" transform="translate(-546.487 -324.734)"/><path class="a" d="M744.79,664.7l9.169-4.067v7.116a3.153,3.153,0,0,1-.594-.278c-1.811-1.12-4.067-.25-4.226-.25a4.805,4.805,0,0,1-3.9-.385c-.085-.05-.169-.1-.25-.138C744.856,665.56,744.79,664.7,744.79,664.7Z" transform="translate(-522.759 -469.742)"/><path class="a" d="M805.036,656.14v7.467a3.352,3.352,0,0,0-.313.691c-.331.77-2.581,1.045-4.558.719a28.2,28.2,0,0,0-3.788-.238c-.291-2.09-.5-4.576-.5-4.576Z" transform="translate(-557.867 -466.657)"/><path class="m" d="M752.594,538.081c-1.539.219-5.38,3.513-7.3,4.173s-1.7.766-2.03,1.536-2.581,1.042-4.558.716a40.9,40.9,0,0,0-5.709-.222s-4.157.719-5.981-.41-4.067-.25-4.226-.25a4.805,4.805,0,0,1-3.9-.385,7.482,7.482,0,0,0-4.5-.713s-2.086-1.207-3.294-.547-3.841-1.317-4.5-1.921,1.251-2.524,2.69-3.075,4.173-8.893,4.445-9.165,1.483-3.184,1.317-4.336,3.128-6.425,3.128-6.425l2.083-7.088.626-2.19.025-1.3c0-.588.028-1.342.044-2.19.056-3.5.116-8.7,0-11.049-.019-.363-.038-.657-.063-.87-.275-2.359,2.19-7.508,2.8-8.562.451-.779,3.366-1.37,5.1-1.736a11.171,11.171,0,0,0,1.226-.294,1.432,1.432,0,0,1,.482-.038c1.639.066,6.472,1.079,6.472,1.079-.438,13.229.441,10.923.441,10.923,1.426-1.1.547-10.814.547-10.814.713.328,1.442-.5,1.442-.5l2.784,1.154a27.542,27.542,0,0,1,2.456,1.661,7.4,7.4,0,0,1,1.717,1.689,35.113,35.113,0,0,1,1.977,5.271l-.988,1.564c-.863,1.386-2.19,3.516-3.55,5.674l-2.415,3.844c-1.079,1.714-1.958,3.106-2.324,3.672a1.365,1.365,0,0,0-.172.441,2.294,2.294,0,0,0-.041.313,4.921,4.921,0,0,0,.128,1.3c.691,3.278,3.816,8.649,3.816,8.649s3.128,4.774,3.184,6.309,3.4,3.184,4.173,5.271,2.468,2.853,2.249,4.117,2.19,1.811,2.634,2.634S754.13,537.862,752.594,538.081Z" transform="translate(-496.419 -346.805)"/><path class="a" d="M860.462,615.231a4.76,4.76,0,0,1-2.834.472l-.178-2.443,3.019.385A9.218,9.218,0,0,0,860.462,615.231Z" transform="translate(-600.177 -437.19)"/><path class="m" d="M823.486,510.09l2.252,1.592a29.22,29.22,0,0,0,1.974,5.653,6.535,6.535,0,0,1,.823,3.4,11.884,11.884,0,0,1,.879,1.1c.66.879,1.536,5.287,1.208,5.856s1.9,5.286,1.9,5.286a7.131,7.131,0,0,1,.96,2.03,6.267,6.267,0,0,1,0,3.679s1.7,3.788.989,4.83-3.022.938-3.35.823.879-.713-1.251-.879-4.942-3.951-4.942-3.951a23.6,23.6,0,0,1-2.415-6.422,47.263,47.263,0,0,0-1.974-6.807c-.275-.823-1.483-6.147-1.483-6.147Z" transform="translate(-573.789 -366.293)"/><path class="a" d="M775.622,510.09s-.166,12.735-1.7,15.259Z" transform="translate(-542.776 -366.293)"/><path class="a" d="M801.712,524.48s-1.426,12.735-2.553,13.391S801.712,524.48,801.712,524.48Z" transform="translate(-559.973 -376.182)"/><path class="a" d="M795.4,518.69s-.347,12.009-2.158,13.194S795.4,518.69,795.4,518.69Z" transform="translate(-555.728 -372.203)"/><path class="a" d="M746.29,591.33s-2.271,6.641-2.015,9.384S746.29,591.33,746.29,591.33Z" transform="translate(-522.391 -422.12)"/><path class="a" d="M770.781,559.967c-2.972.666-11.011,1.861-18.081-2.537,0-.588.028-1.342.044-2.19,2.684,1.476,10.223,5.318,14.061,4.242,1.914-.547,3.128-.895,3.888-1.12a4.135,4.135,0,0,0,.088,1.6Z" transform="translate(-528.194 -397.32)"/><path class="a" d="M770.781,557.867c-2.972.663-11.011,1.858-18.081-2.537,0-.588.028-1.345.044-2.19,2.684,1.477,10.223,5.318,14.061,4.242,1.914-.544,3.128-.895,3.888-1.117A4.138,4.138,0,0,0,770.781,557.867Z" transform="translate(-528.194 -395.877)"/><path class="n" d="M770.781,558.617c-2.972.663-11.011,1.858-18.081-2.537,0-.588.028-1.342.044-2.19,2.684,1.476,10.223,5.318,14.061,4.242,1.914-.544,3.128-.895,3.888-1.117A4.138,4.138,0,0,0,770.781,558.617Z" transform="translate(-528.194 -396.392)"/><path class="a" d="M770.781,558.617c-2.972.663-11.011,1.858-18.081-2.537,0-.588.028-1.342.044-2.19,2.684,1.476,10.223,5.318,14.061,4.242,1.914-.544,3.128-.895,3.888-1.117A4.138,4.138,0,0,0,770.781,558.617Z" transform="translate(-528.194 -396.392)"/><path class="a" d="M759.488,803.262a.514.514,0,0,1-.019.135l-4.589,3.5c.732-.666.92-2.218.917-3.657v-.469a9.26,9.26,0,0,1,1.7-2.709,1.408,1.408,0,0,1,1.564.354v.1a1.444,1.444,0,0,1,.163.244A4.453,4.453,0,0,1,759.488,803.262Z" transform="translate(-529.692 -565.503)"/><path class="a" d="M760.863,801.97l-3.463,2.377s.022-.278.053-.688a9.476,9.476,0,0,1,1.774-2.893,1.413,1.413,0,0,1,1.564.353C760.819,801.632,760.863,801.97,760.863,801.97Z" transform="translate(-531.424 -565.987)"/><path class="o" d="M757.955,804.314a8.634,8.634,0,0,0-.719,3.535,5.456,5.456,0,0,1-.735,2.85,2.45,2.45,0,0,1-.241.347s-2.406-.019-3.247-.716a.823.823,0,0,1-.232-.266c-.482-.96.938-4.639.938-4.639a10.2,10.2,0,0,1,2.259-4.351C758.677,800.367,757.955,804.314,757.955,804.314Z" transform="translate(-528.181 -566.195)"/><path class="a" d="M757.228,820.445a2.445,2.445,0,0,1-.241.347s-2.405-.019-3.247-.716c.413-1.37,1.736-5.515,2.352-4.811S757.081,819.122,757.228,820.445Z" transform="translate(-528.909 -575.95)"/><path class="o" d="M763.466,815.545l-.166,6.213h.807s.128-5.449.491-6.213S763.466,815.545,763.466,815.545Z" transform="translate(-535.478 -575.965)"/><path class="a" d="M810.586,798.772l-.019.128h0L806,802.375c.71-.682.895-2.215.892-3.635v-.472a9.244,9.244,0,0,1,1.692-2.706,1.446,1.446,0,0,1,1.58.35v.1a1.3,1.3,0,0,1,.163.241A4.542,4.542,0,0,1,810.586,798.772Z" transform="translate(-564.821 -562.411)"/><path class="a" d="M811.913,797.461l-3.463,2.38s.022-.278.056-.688a9.385,9.385,0,0,1,1.771-2.894,1.421,1.421,0,0,1,1.58.354C811.869,797.126,811.913,797.461,811.913,797.461Z" transform="translate(-566.505 -562.889)"/><path class="o" d="M809.024,799.812a8.584,8.584,0,0,0-.723,3.535,5.454,5.454,0,0,1-.735,2.85,2.7,2.7,0,0,1-.241.347s-2.405-.019-3.247-.716a.866.866,0,0,1-.225-.269c-.479-.96.939-4.639.939-4.639a10.2,10.2,0,0,1,2.258-4.351C809.743,795.871,809.024,799.812,809.024,799.812Z" transform="translate(-563.278 -563.1)"/><path class="a" d="M808.278,815.968a2.716,2.716,0,0,1-.241.347s-2.406-.019-3.247-.716c.413-1.37,1.736-5.518,2.352-4.814S808.131,814.635,808.278,815.968Z" transform="translate(-563.99 -572.872)"/><path class="o" d="M814.519,811.045l-.169,6.209h.807s.128-5.446.491-6.209S814.519,811.045,814.519,811.045Z" transform="translate(-570.559 -572.872)"/><path class="a" d="M786.32,462.805a3.885,3.885,0,0,1-2.39,3.7c-.438.135-.9.166-1.351.257a2.894,2.894,0,0,0-.626.191,3.383,3.383,0,0,0-1.633,2.574c-.069.357-.113.716-.156,1.079a7.757,7.757,0,0,1-.428,2.024,5.124,5.124,0,0,1-2.108,2.4,13.573,13.573,0,0,1-3.5,1.464,7.867,7.867,0,0,0,.938-6.538c-.2-.641-.626-1.358-1.3-1.339-.529.016-.907.485-1.3.841-1.94,1.746-4.974.967-7.429.088a15.8,15.8,0,0,0,2.956-17.327,5.717,5.717,0,0,1-.538-1.4,2.915,2.915,0,0,1,.135-1.445,6.4,6.4,0,0,1,.888-1.655c.153-.216.313-.429.475-.644.21-.285.419-.572.607-.87a4.78,4.78,0,0,0,.626-1.354,2.3,2.3,0,0,0-1.142-2.772l-.056-.022a3.656,3.656,0,0,1-2.268-1.376c-.519-.607-.813-1.564-1.7-1.742a5.115,5.115,0,0,0-2.162.347,6.04,6.04,0,1,1,10.886,4.433,13.311,13.311,0,0,0,4.464,6.015l2.784,1.154a27.551,27.551,0,0,1,2.456,1.661,35.924,35.924,0,0,0,1.771,5.721,20.16,20.16,0,0,1,.938,2.815,6.927,6.927,0,0,1,.172,1.717Z" transform="translate(-535.169 -314.122)"/><path class="p" d="M764.268,433.861a2.287,2.287,0,0,1,1.2,2.793,9.338,9.338,0,0,1-1.7,2.868,4.284,4.284,0,0,0-1.026,3.1,5.717,5.717,0,0,0,.538,1.4,15.827,15.827,0,0,1-2.956,17.327c2.456.879,5.493,1.658,7.429-.088.394-.357.773-.826,1.3-.841.672-.022,1.107.7,1.3,1.339a7.861,7.861,0,0,1-.938,6.535c2.262-.657,4.745-1.674,5.612-3.863a16.552,16.552,0,0,0,.582-3.106,3.377,3.377,0,0,1,1.633-2.571,16.3,16.3,0,0,1,1.977-.447,3.882,3.882,0,0,0,2.39-3.7,12.065,12.065,0,0,0-1.126-4.533c-3.128-8.133-.188-1.617-1.9-11.405-.35-2,.2-3.194.644-5.171s.35-4.267-1.023-5.762-3.506-1.774-5.211-2.787c-1.511-.9-2.84-2.418-4.6-2.39a4.613,4.613,0,0,0-2.474.729c-2.055.863-4.361.6-6.45,1.317-1.877.644-4.261,2.753-3.691,5.005.766,3.031,2.868.8,4.508,1.142.888.188,1.182,1.132,1.7,1.742A3.755,3.755,0,0,0,764.268,433.861Z" transform="translate(-530.253 -306.143)"/><path class="l" d="M701.576,567.951s-.888-.094-2.083-.278c-3.128-.475-8.418-1.564-5.409-3.128,2.762-1.445,6.569-.219,8.8.763a19.464,19.464,0,0,1,1.852.938Z" transform="translate(-487.299 -403.258)"/><path class="a" d="M757.635,499.064s-1.426,7.195-2.14,8.781-1.877,5.765-1.877,5.765-1.686,1.527-3.078,3.009l.626-2.19.025-1.3c0-.588.028-1.342.044-2.19.056-3.5.116-8.7,0-11.049.122-.228.2-.369.2-.369l1.11-1.761s1.811-4.83,2.853-6.2S757.635,499.064,757.635,499.064Z" transform="translate(-526.71 -353.456)"/><path class="a" d="M717.2,568.714s-.16.626-.429,1.47c-.341-.138-.626-.247-.835-.313-.938-.313.166-.713-.109-1.536-.235-.707-.669-.485-1.17-.682a13.67,13.67,0,0,1,1.06-1.273Z" transform="translate(-502.054 -404.975)"/><path class="m" d="M728.721,497.748l-1.111,1.761a33.2,33.2,0,0,0-1.742,3.66c-.235.866-.7,4.182-1.642,4.952s-2.856,3.238-2.581,3.732-2.581,1.1-2.581,1.1-1.921.77-1.811,1.373-1.592,1.1-.988,1.536,1.154,0,1.43.823-.826,1.211.109,1.539,4.007,1.614,4.007,1.614,2.468.416,3.181-1.067,4.777-5.158,4.777-5.158a59.315,59.315,0,0,1,1.877-5.765c.726-1.592,2.143-8.781,2.143-8.781s-1.154-8.893-2.19-7.508A42.347,42.347,0,0,0,728.721,497.748Z" transform="translate(-503.067 -353.457)"/><path class="a" d="M738.943,556.94s-5.434.713-2.524,1.921,3.9,0,3.9,0Z" transform="translate(-516.417 -398.488)"/><path class="a" d="M724.79,566.649s3.184-.657,4.007,0S724.79,566.649,724.79,566.649Z" transform="translate(-509.015 -404.959)"/><path class="a" d="M723.74,572.022s.219-.551,1.317,0S723.74,572.022,723.74,572.022Z" transform="translate(-508.293 -408.684)"/><path class="a" d="M838.58,589.32s.332,5,1.68,5.168S838.58,589.32,838.58,589.32Z" transform="translate(-587.21 -420.739)"/><path class="a" d="M844.218,553.1a1.564,1.564,0,0,1-1.2,1.8C841.581,555.18,844.218,553.1,844.218,553.1Z" transform="translate(-589.963 -395.849)"/><path class="a" d="M795.85,600.69s-.072,15.444,3.075,17.345Z" transform="translate(-557.846 -428.552)"/><path class="a" d="M809.18,602.8s-.056,15.44,3.072,17.345Z" transform="translate(-567.006 -430.002)"/><path class="a" d="M755.72,709.581a11.56,11.56,0,0,1,2.143,0C759.055,709.678,755.72,709.581,755.72,709.581Z" transform="translate(-530.269 -503.346)"/><path class="a" d="M755.72,713.031a11.576,11.576,0,0,1,2.143,0C759.055,713.14,755.72,713.031,755.72,713.031Z" transform="translate(-530.269 -505.717)"/><path class="a" d="M807.77,705.531a11.558,11.558,0,0,1,2.143,0C811.1,705.643,807.77,705.531,807.77,705.531Z" transform="translate(-566.038 -500.563)"/><path class="a" d="M808.94,708.291a11.58,11.58,0,0,1,2.143,0C812.271,708.4,808.94,708.291,808.94,708.291Z" transform="translate(-566.842 -502.46)"/><g class="q" transform="translate(225.509 118.634)"><path class="c" d="M761.623,465.68a15.8,15.8,0,0,0,2.956-17.327,5.719,5.719,0,0,1-.538-1.4,4.27,4.27,0,0,1,1.026-3.1,9.215,9.215,0,0,0,1.7-2.868,2.285,2.285,0,0,0-1.2-2.79,3.66,3.66,0,0,1-2.268-1.38c-.519-.607-.813-1.564-1.7-1.739-1.639-.341-3.754,1.877-4.508-1.145-.432-1.7.829-3.316,2.284-4.282-1.817.754-3.919,2.756-3.382,4.874.766,3.031,2.869.8,4.508,1.145.888.185,1.182,1.132,1.7,1.739a3.669,3.669,0,0,0,2.268,1.379,2.282,2.282,0,0,1,1.2,2.79,9.339,9.339,0,0,1-1.7,2.868,4.288,4.288,0,0,0-1.026,3.1,5.745,5.745,0,0,0,.538,1.4,15.826,15.826,0,0,1-2.956,17.327c2.365.848,5.265,1.6,7.195.1C765.889,467.012,763.575,466.377,761.623,465.68Z" transform="translate(-755.906 -429.65)"/><path class="c" d="M826.936,535.6a2.154,2.154,0,0,0-.626.432c.494-.122,1.017-.138,1.5-.291a2.815,2.815,0,0,0,1.02-.569A12.409,12.409,0,0,0,826.936,535.6Z" transform="translate(-804.287 -502.162)"/><path class="c" d="M802.582,548.876a17.309,17.309,0,0,1-2.377.86,7.86,7.86,0,0,0,.938-6.535c-.2-.626-.626-1.361-1.3-1.342a1.667,1.667,0,0,0-1.039.594c.626.022,1.054.716,1.251,1.339a7.861,7.861,0,0,1-.938,6.535A13.738,13.738,0,0,0,802.582,548.876Z" transform="translate(-785.382 -506.758)"/></g></svg>